<svg xmlns="http://www.w3.org/2000/svg" width="8.913" height="19.522" viewBox="0 0 8.913 19.522">
  <g id="Group_2514" data-name="Group 2514" transform="translate(-3356.986 -83.385)">
    <path id="Path_94" data-name="Path 94" d="M3356.986,86.568a.637.637,0,0,1,.637-.637,4.461,4.461,0,0,1,4.456,4.456.637.637,0,0,1-.636.637A4.462,4.462,0,0,1,3356.986,86.568Z" fill="#719746"/>
    <path id="Path_95" data-name="Path 95" d="M3360.875,90.624a7.9,7.9,0,0,1,0,5.893.643.643,0,0,0,0,.473,7.978,7.978,0,0,1,.268,5.107.636.636,0,0,0,.612.81h3.218a.636.636,0,0,0,.613-.81,7.971,7.971,0,0,1,.267-5.107.634.634,0,0,0,0-.473,7.9,7.9,0,0,1,0-5.893.659.659,0,0,0,0-.473,7.9,7.9,0,0,1,0-5.893.635.635,0,0,0-.591-.873h-3.8a.636.636,0,0,0-.591.873,7.9,7.9,0,0,1,0,5.893A.664.664,0,0,0,3360.875,90.624Z" fill="#89bd36"/>
    <path id="Path_96" data-name="Path 96" d="M3360.875,96.517a.643.643,0,0,0,0,.473,7.978,7.978,0,0,1,.268,5.107.636.636,0,0,0,.612.81h1.6V83.385h-1.887a.636.636,0,0,0-.591.873,7.9,7.9,0,0,1,0,5.893.664.664,0,0,0,0,.473A7.9,7.9,0,0,1,3360.875,96.517Z" fill="#7ca339"/>
    <path id="Path_97" data-name="Path 97" d="M3365.715,89.751h-4.7c-.046.133-.086.268-.139.4a.643.643,0,0,0,0,.473c.053.131.1.266.141.4h4.7c.046-.134.089-.269.141-.4a.634.634,0,0,0,0-.473C3365.8,90.019,3365.76,89.884,3365.715,89.751Z" fill="#bae446"/>
    <path id="Path_98" data-name="Path 98" d="M3360.875,90.151a.634.634,0,0,0,0,.473c.053.131.1.266.141.4h2.336V89.751h-2.338C3360.968,89.884,3360.928,90.019,3360.875,90.151Z" fill="#afd743"/>
    <path id="Path_99" data-name="Path 99" d="M3365.715,96.117h-4.7c-.046.133-.086.268-.139.4a.643.643,0,0,0,0,.473c.053.132.1.266.141.4h4.7c.046-.134.089-.269.141-.4a.634.634,0,0,0,0-.473C3365.8,96.385,3365.76,96.25,3365.715,96.117Z" fill="#bae446"/>
    <path id="Path_100" data-name="Path 100" d="M3360.875,96.517a.634.634,0,0,0,0,.473c.053.131.1.266.141.4h2.336V96.117h-2.338C3360.968,96.25,3360.928,96.385,3360.875,96.517Z" fill="#afd743"/>
  </g>
</svg>
