<svg xmlns="http://www.w3.org/2000/svg" width="8.913" height="19.522" viewBox="0 0 8.913 19.522">
  <g id="Group_2513" data-name="Group 2513" transform="translate(-3453.509 -83.385)">
    <path id="Path_87" data-name="Path 87" d="M3457.965,91.024a.636.636,0,0,1-.636-.637,4.461,4.461,0,0,1,4.456-4.456.637.637,0,0,1,.637.637A4.461,4.461,0,0,1,3457.965,91.024Z" fill="#719746"/>
    <path id="Path_88" data-name="Path 88" d="M3458.533,90.151a7.9,7.9,0,0,1,0-5.893.636.636,0,0,0-.591-.873h-3.8a.636.636,0,0,0-.591.873,7.9,7.9,0,0,1,0,5.893.664.664,0,0,0,0,.473,7.9,7.9,0,0,1,0,5.893.634.634,0,0,0,0,.473,7.969,7.969,0,0,1,.267,5.107.636.636,0,0,0,.613.81h3.218a.636.636,0,0,0,.612-.81,7.978,7.978,0,0,1,.268-5.107.634.634,0,0,0,0-.473,7.9,7.9,0,0,1,0-5.893A.664.664,0,0,0,3458.533,90.151Z" fill="#89bd36"/>
    <path id="Path_89" data-name="Path 89" d="M3458.533,90.624a.664.664,0,0,0,0-.473,7.9,7.9,0,0,1,0-5.893.636.636,0,0,0-.591-.873h-1.886v19.522h1.6a.636.636,0,0,0,.612-.81,7.978,7.978,0,0,1,.268-5.107.634.634,0,0,0,0-.473A7.9,7.9,0,0,1,3458.533,90.624Z" fill="#7ca339"/>
    <path id="Path_90" data-name="Path 90" d="M3453.555,90.151a.634.634,0,0,0,0,.473c.052.131.095.266.141.4h4.7c.045-.134.088-.269.141-.4a.634.634,0,0,0,0-.473c-.053-.132-.093-.267-.139-.4h-4.7C3453.648,89.884,3453.607,90.019,3453.555,90.151Z" fill="#bae446"/>
    <path id="Path_91" data-name="Path 91" d="M3458.394,89.751h-2.338v1.273h2.336c.045-.134.088-.269.141-.4a.634.634,0,0,0,0-.473C3458.48,90.019,3458.44,89.884,3458.394,89.751Z" fill="#afd743"/>
    <path id="Path_92" data-name="Path 92" d="M3453.555,96.517a.634.634,0,0,0,0,.473c.052.131.095.266.141.4h4.7c.045-.134.088-.268.141-.4a.634.634,0,0,0,0-.473c-.053-.132-.093-.267-.139-.4h-4.7C3453.648,96.25,3453.607,96.385,3453.555,96.517Z" fill="#bae446"/>
    <path id="Path_93" data-name="Path 93" d="M3458.394,96.117h-2.338V97.39h2.336c.045-.134.088-.269.141-.4a.634.634,0,0,0,0-.473C3458.48,96.385,3458.44,96.25,3458.394,96.117Z" fill="#afd743"/>
  </g>
</svg>
